HIERARCHY
ROOT Hips
{
    OFFSET   0.000000   0.000000   0.000000
    CHANNELS 6 Xposition Yposition Zposition Zrotation Xrotation Yrotation
    JOINT Chest
    {
        OFFSET   0.000000   8.007230   0.000000
        CHANNELS 3 Zrotation Xrotation Yrotation
        JOINT Chest2
        {
            OFFSET   0.000000  22.077100   0.000000
            CHANNELS 3 Zrotation Xrotation Yrotation
            JOINT Neck
            {
                OFFSET   0.000000  23.255100   0.000000
                CHANNELS 3 Zrotation Xrotation Yrotation
                JOINT Head
                {
                    OFFSET   0.000000  14.370100   1.956600
                    CHANNELS 3 Zrotation Xrotation Yrotation
                    End Site
                    {
                        OFFSET   0.000000  19.566000   0.000000
                    }
                }
            }
            JOINT LeftCollar
            {
                OFFSET   3.911900  19.017000  -0.467063
                CHANNELS 3 Zrotation Xrotation Yrotation
                JOINT LeftShoulder
                {
                    OFFSET  10.383700   0.000000   0.000000
                    CHANNELS 3 Zrotation Xrotation Yrotation
                    JOINT LeftElbow
                    {
                        OFFSET  26.662100   0.001193   0.000980
                        CHANNELS 3 Zrotation Xrotation Yrotation
                        JOINT LeftWrist
                        {
                            OFFSET  28.869000  -0.000059  -0.000082
                            CHANNELS 3 Zrotation Xrotation Yrotation
                            JOINT LeftFinger0
                            {
                                OFFSET   2.044650  -2.323450   3.252850
                                CHANNELS 3 Zrotation Xrotation Yrotation
                                JOINT LeftFinger01
                                {
                                    OFFSET   3.088130   0.000000   0.000000
                                    CHANNELS 3 Zrotation Xrotation Yrotation
                                    JOINT LeftFinger02
                                    {
                                        OFFSET   2.639460   0.000000   0.000000
                                        CHANNELS 3 Zrotation Xrotation Yrotation
                                        End Site
                                        {
                                            OFFSET   2.582190   0.000000   0.000000
                                        }
                                    }
                                }
                            }
                            JOINT LeftFinger1
                            {
                                OFFSET   8.364480   0.000000   3.252850
                                CHANNELS 3 Zrotation Xrotation Yrotation
                                JOINT LeftFinger11
                                {
                                    OFFSET   4.646930   0.000000   0.000000
                                    CHANNELS 3 Zrotation Xrotation Yrotation
                                    JOINT LeftFinger12
                                    {
                                        OFFSET   2.323470   0.000000   0.000000
                                        CHANNELS 3 Zrotation Xrotation Yrotation
                                        End Site
                                        {
                                            OFFSET   2.273050   0.000000   0.000000
                                        }
                                    }
                                }
                            }
                            JOINT LeftFinger2
                            {
                                OFFSET   8.364490   0.000016   1.078090
                                CHANNELS 3 Zrotation Xrotation Yrotation
                                JOINT LeftFinger21
                                {
                                    OFFSET   5.111610   0.000000   0.000000
                                    CHANNELS 3 Zrotation Xrotation Yrotation
                                    JOINT LeftFinger22
                                    {
                                        OFFSET   2.788150   0.000016   0.000000
                                        CHANNELS 3 Zrotation Xrotation Yrotation
                                        End Site
                                        {
                                            OFFSET   2.727660   0.000000   0.000000
                                        }
                                    }
                                }
                            }
                            JOINT LeftFinger3
                            {
                                OFFSET   7.899780   0.000015  -1.078090
                                CHANNELS 3 Zrotation Xrotation Yrotation
                                JOINT LeftFinger31
                                {
                                    OFFSET   4.646930   0.000000   0.000000
                                    CHANNELS 3 Zrotation Xrotation Yrotation
                                    JOINT LeftFinger32
                                    {
                                        OFFSET   2.323470   0.000000   0.000000
                                        CHANNELS 3 Zrotation Xrotation Yrotation
                                        End Site
                                        {
                                            OFFSET   2.273050   0.000000   0.000000
                                        }
                                    }
                                }
                            }
                            JOINT LeftFinger4
                            {
                                OFFSET   7.435090   0.000000  -3.252850
                                CHANNELS 3 Zrotation Xrotation Yrotation
                                JOINT LeftFinger41
                                {
                                    OFFSET   3.717550   0.000000   0.000000
                                    CHANNELS 3 Zrotation Xrotation Yrotation
                                    JOINT LeftFinger42
                                    {
                                        OFFSET   1.858770   0.000000   0.000000
                                        CHANNELS 3 Zrotation Xrotation Yrotation
                                        End Site
                                        {
                                            OFFSET   1.818440   0.000000   0.000000
                                        }
                                    }
                                }
                            }
                        }
                    }
                }
            }
            JOINT RightCollar
            {
                OFFSET  -3.911910  19.017000  -0.467062
                CHANNELS 3 Zrotation Xrotation Yrotation
                JOINT RightShoulder
                {
                    OFFSET -10.383700   0.000014   0.000000
                    CHANNELS 3 Zrotation Xrotation Yrotation
                    JOINT RightElbow
                    {
                        OFFSET -26.662100   0.001225   0.001091
                        CHANNELS 3 Zrotation Xrotation Yrotation
                        JOINT RightWrist
                        {
                            OFFSET -28.869000  -0.000020  -0.000085
                            CHANNELS 3 Zrotation Xrotation Yrotation
                            JOINT RightFinger0
                            {
                                OFFSET  -2.044650  -2.323490   3.252850
                                CHANNELS 3 Zrotation Xrotation Yrotation
                                JOINT RightFinger01
                                {
                                    OFFSET  -3.088130   0.000000   0.000000
                                    CHANNELS 3 Zrotation Xrotation Yrotation
                                    JOINT RightFinger02
                                    {
                                        OFFSET  -2.639460   0.000000   0.000000
                                        CHANNELS 3 Zrotation Xrotation Yrotation
                                        End Site
                                        {
                                            OFFSET  -2.582190   0.000000   0.000000
                                        }
                                    }
                                }
                            }
                            JOINT RightFinger1
                            {
                                OFFSET  -8.364480   0.000000   3.252850
                                CHANNELS 3 Zrotation Xrotation Yrotation
                                JOINT RightFinger11
                                {
                                    OFFSET  -4.646930   0.000000   0.000000
                                    CHANNELS 3 Zrotation Xrotation Yrotation
                                    JOINT RightFinger12
                                    {
                                        OFFSET  -2.323470   0.000000   0.000000
                                        CHANNELS 3 Zrotation Xrotation Yrotation
                                        End Site
                                        {
                                            OFFSET  -2.273050   0.000000   0.000000
                                        }
                                    }
                                }
                            }
                            JOINT RightFinger2
                            {
                                OFFSET  -8.364480   0.000000   1.078090
                                CHANNELS 3 Zrotation Xrotation Yrotation
                                JOINT RightFinger21
                                {
                                    OFFSET  -5.111620   0.000000   0.000000
                                    CHANNELS 3 Zrotation Xrotation Yrotation
                                    JOINT RightFinger22
                                    {
                                        OFFSET  -2.788160   0.000000   0.000000
                                        CHANNELS 3 Zrotation Xrotation Yrotation
                                        End Site
                                        {
                                            OFFSET  -2.727660   0.000000   0.000000
                                        }
                                    }
                                }
                            }
                            JOINT RightFinger3
                            {
                                OFFSET  -7.899780   0.000000  -1.078090
                                CHANNELS 3 Zrotation Xrotation Yrotation
                                JOINT RightFinger31
                                {
                                    OFFSET  -4.646930   0.000000   0.000000
                                    CHANNELS 3 Zrotation Xrotation Yrotation
                                    JOINT RightFinger32
                                    {
                                        OFFSET  -2.323470   0.000000   0.000000
                                        CHANNELS 3 Zrotation Xrotation Yrotation
                                        End Site
                                        {
                                            OFFSET  -2.273050   0.000000   0.000000
                                        }
                                    }
                                }
                            }
                            JOINT RightFinger4
                            {
                                OFFSET  -7.435090   0.000000  -3.252850
                                CHANNELS 3 Zrotation Xrotation Yrotation
                                JOINT RightFinger41
                                {
                                    OFFSET  -3.717550   0.000000   0.000000
                                    CHANNELS 3 Zrotation Xrotation Yrotation
                                    JOINT RightFinger42
                                    {
                                        OFFSET  -1.858760   0.000000   0.000000
                                        CHANNELS 3 Zrotation Xrotation Yrotation
                                        End Site
                                        {
                                            OFFSET  -1.818440   0.000000   0.000000
                                        }
                                    }
                                }
                            }
                        }
                    }
                }
            }
        }
    }
    JOINT LeftHip
    {
        OFFSET   9.783030   0.000000   0.000000
        CHANNELS 3 Zrotation Xrotation Yrotation
        JOINT LeftKnee
        {
            OFFSET   0.000063 -41.789100   0.000608
            CHANNELS 3 Zrotation Xrotation Yrotation
            JOINT LeftAnkle
            {
                OFFSET   0.000048 -41.133200  -0.000184
                CHANNELS 3 Zrotation Xrotation Yrotation
                JOINT LeftToe
                {
                    OFFSET   0.000000  -6.358960  14.674500
                    CHANNELS 3 Zrotation Xrotation Yrotation
                    End Site
                    {
                        OFFSET   0.000000   0.000000   3.913200
                    }
                }
            }
        }
    }
    JOINT RightHip
    {
        OFFSET  -9.783030   0.000000   0.000000
        CHANNELS 3 Zrotation Xrotation Yrotation
        JOINT RightKnee
        {
            OFFSET   0.000071 -41.789100   0.001239
            CHANNELS 3 Zrotation Xrotation Yrotation
            JOINT RightAnkle
            {
                OFFSET   0.000037 -41.133200  -0.000166
                CHANNELS 3 Zrotation Xrotation Yrotation
                JOINT RightToe
                {
                    OFFSET   0.000000  -6.358960  14.674500
                    CHANNELS 3 Zrotation Xrotation Yrotation
                    End Site
                    {
                        OFFSET   0.000000   0.000000   3.913200
                    }
                }
            }
        }
    }
}
MOTION
Frames: 4
Frame Time:   0.016667
  0.088595  90.075100  -0.501836  -0.896209  -1.784560  -2.377580  -0.043575   2.528340  -0.616075  -0.059987   5.057000  -1.232020   1.222690  -1.003240   0.015420   2.010520  -2.033140   9.363620  -5.439820  -0.831551   4.896150 -72.665300  17.270500   1.610390  -4.614560  -8.025770 -17.177400  18.757100   0.183958  10.848200  35.129400  26.081300 -62.755200 -31.057900   0.005737   0.003524 -10.529000   0.005406   0.005809 -38.548300   7.704440  -9.565130 -32.067200   0.000850  -0.007946 -22.447000   0.002228  -0.003103 -31.586700  -0.259285   0.426547 -47.381400   0.003621   0.000549 -31.556100   0.007073   0.009869 -28.574900  -1.498250   2.747860 -37.677000   0.006413  -0.012535 -25.092900  -0.000791   0.004856 -32.953300  -1.702330   2.626380 -49.488500  -0.003093  -0.010752 -32.959300  -0.004501   0.003124  10.951400   3.105010   8.521550  66.871600   9.114260  -3.711600   2.610610  -6.730710  13.905400 -21.875000 -11.260900  -2.300310 -35.837300  36.590500  76.532200  34.097600   0.005759  -0.006190  12.038300  -0.003858  -0.003271  37.513500   2.531570   3.292880  30.752300  -0.000424  -0.003830  21.526600   0.006224   0.001548  29.992400  -0.936846  -1.622670  45.008500  -0.004527  -0.009436  29.975700  -0.007974  -0.011285  32.964700  -2.861640  -4.403670  49.597000  -0.002407  -0.001081  33.042900  -0.004054  -0.003979  48.877900  -4.092080  -3.563300  73.508200  -0.008814  -0.008500  48.956400  -0.005988   0.000533  -0.133807   1.338130   1.525460   0.556726   1.357130  11.827900  -4.600580  -3.055140   5.748680  -0.000000   0.000000  -0.000000   3.226310   1.062430  -9.284010  -1.440630   3.365210  -8.756540 -10.518100   0.302903   2.136040  -0.000000   0.000000   0.000000
  0.073612  90.075200  -0.494419  -0.896008  -1.814530  -2.324890  -0.049685   2.544620  -0.618869  -0.071951   5.089640  -1.237230   1.175220  -1.001930   0.015500   1.932030  -2.029650   9.575420  -5.449030  -0.831428   4.926780 -72.658100  17.302400   1.634800  -4.627130  -8.036400 -17.161100  18.786800   0.202673  10.842300  35.117200  26.066000 -62.742200 -31.069800   0.005735   0.003510 -10.534900   0.005406   0.005823 -38.530100   7.704440  -9.565130 -32.052600   0.000852  -0.007947 -22.436700   0.002230  -0.003106 -31.563500  -0.258761   0.423932 -47.346600   0.003623   0.000546 -31.532900   0.007073   0.009873 -28.575000  -1.497440   2.746450 -37.643900   0.006415  -0.012542 -25.070900  -0.000797   0.004853 -32.936700  -1.701200   2.625170 -49.463500  -0.003097  -0.010757 -32.942700  -0.004507   0.003127  10.959700   3.111810   8.547890  66.848400   9.134620  -3.695440   2.619780  -6.762670  13.886200 -21.862900 -11.260900  -2.306930 -35.822500  36.559700  76.506600  34.098000   0.005776  -0.006186  12.038400  -0.003860  -0.003270  37.525000   2.544990   3.308910  30.762300  -0.000424  -0.003816  21.533600   0.006229   0.001548  29.999100  -0.929293  -1.609070  45.018100  -0.004529  -0.009433  29.982100  -0.007979  -0.011288  32.965900  -2.854300  -4.391520  49.604000  -0.002406  -0.001069  33.042900  -0.004053  -0.003980  48.882200  -4.092080  -3.563300  73.514400  -0.008816  -0.008503  48.960600  -0.005987   0.000531  -0.123724   1.375640   1.512850   0.563320   1.341610  11.816500  -4.615110  -3.044020   5.720070  -0.000000   0.000000   0.000000   3.242510   1.104920  -9.296570  -1.437820   3.352720  -8.773360 -10.529500   0.302491   2.108180  -0.000000   0.000000  -0.000000
  0.047906  90.075300  -0.482318  -0.895360  -1.863620  -2.236930  -0.061035   2.569430  -0.621667  -0.094276   5.139390  -1.242480   1.092920  -0.992826   0.015580   1.796800  -2.011800   9.935240  -5.457970  -0.831283   4.975310 -72.653900  17.358200   1.669530  -4.640310  -8.059200 -17.124700  18.839000   0.234064  10.833000  35.095700  26.040400 -62.724200 -31.090100   0.005732   0.003490 -10.545000   0.005406   0.005849 -38.504800   7.704440  -9.565130 -32.032100   0.000857  -0.007951 -22.422500   0.002239  -0.003116 -31.530500  -0.255210   0.415930 -47.297000   0.003629   0.000539 -31.499800   0.007073   0.009886 -28.575400  -1.493670   2.739650 -37.597100   0.006420  -0.012560 -25.039700  -0.000813   0.004845 -32.913200  -1.696560   2.618920 -49.427900  -0.003108  -0.010769 -32.919000  -0.004523   0.003137  10.975700   3.122530   8.584500  66.816000   9.169080  -3.671150   2.630160  -6.795040  13.852700 -21.837000 -11.260800  -2.317270 -35.807800  36.528800  76.481100  34.098300   0.005810  -0.006172  12.038500  -0.003864  -0.003266  37.542800   2.564320   3.331850  30.777800  -0.000425  -0.003781  21.544500   0.006242   0.001549  30.008500  -0.921740  -1.595470  45.032000  -0.004537  -0.009427  29.991300  -0.007992  -0.011297  32.967100  -2.846970  -4.379100  49.614000  -0.002403  -0.001038  33.042900  -0.004050  -0.003982  48.890500  -4.092080  -3.563300  73.526700  -0.008820  -0.008511  48.968800  -0.005985   0.000526  -0.107636   1.432660   1.498780   0.572380   1.326120  11.797300  -4.639710  -3.026700   5.668510  -0.000000   0.000000  -0.000000   3.267730   1.174230  -9.315510  -1.433170   3.333030  -8.800700 -10.548000   0.301830   2.059100   0.000000   0.000000  -0.000000
  0.025885  90.075200  -0.472930  -0.894425  -1.900070  -2.167600  -0.072753   2.584010  -0.619340  -0.117671   5.168670  -1.237420   1.021520  -0.970712   0.015560   1.679570  -1.967770  10.237200  -5.457290  -0.832139   5.008870 -72.659200  17.408200   1.686260  -4.635130  -8.088390 -17.078100  18.887400   0.260622  10.826200  35.075600  26.018800 -62.717000 -31.107500   0.005730   0.003482 -10.553700   0.005399   0.005870 -38.493900   7.705170  -9.568520 -32.023000   0.000865  -0.007958 -22.416800   0.002252  -0.003133 -31.514400  -0.247000   0.402477 -47.272800   0.003644   0.000526 -31.483600   0.007074   0.009907 -28.576300  -1.485850   2.725420 -37.575300   0.006426  -0.012589 -25.025100  -0.000836   0.004832 -32.903000  -1.687340   2.605540 -49.412500  -0.003128  -0.010789 -32.907500  -0.004548   0.003154  10.993000   3.131290   8.596230  66.802400   9.195930  -3.656270   2.632300  -6.792610  13.823200 -21.805100 -11.267300  -2.323450 -35.810300  36.530400  76.484600  34.095900   0.005852  -0.006143  12.038700  -0.003872  -0.003249  37.554600   2.572740   3.341330  30.787900  -0.000426  -0.003728  21.551600   0.006265   0.001553  30.013200  -0.923714  -1.598650  45.039900  -0.004551  -0.009417  29.996100  -0.008010  -0.011309  32.969400  -2.847020  -4.378920  49.618700  -0.002399  -0.000988  33.045100  -0.004044  -0.003984  48.900200  -4.095170  -3.564050  73.541400  -0.008826  -0.008525  48.978600  -0.005982   0.000520  -0.095691   1.465780   1.497810   0.577478   1.326860  11.780600  -4.660850  -3.015160   5.618370  -0.000000   0.000000   0.000000   3.282950   1.226360  -9.324240  -1.428530   3.319000  -8.821300 -10.561500   0.301434   2.013920  -0.000000   0.000000   0.000000
